<svg t="1729234940719" class="icon" viewBox="0 0 1024 1024" version="1.1" xmlns="http://www.w3.org/2000/svg" p-id="5164"
  width="200" height="200">
  <path d="M263.1 557v164h15c45 0 73-24.1 73-82.8 0-59-28-81.2-73-81.2h-15z" fill="#1296db" p-id="5165"></path>
  <path
    d="M912.8 441.5h-47.2V253.4L677.1 65.3H252.6c-52.1 0-94.3 42.1-94.3 94v282.1h-47.2c-26 0-47.2 21.1-47.2 47v282.1c0 26 21.1 47 47.2 47h47.2v47c0 51.9 42.2 94 94.3 94h518.7c52.1 0 94.3-42.1 94.3-94v-47h47.2c26 0 47.2-21 47.2-47v-282c0-26-21.1-47-47.2-47zM205.5 159.3c0-26 21.1-47 47.2-47H630v94.1c0 51.9 42.2 94 94.3 94h94.3v141.1H205.5V159.3z m427.6 478.9c0 81.2-45.6 121.6-116.7 121.6h-68.8V518.5h66.2c73.7 0 119.3 38.2 119.3 119.7z m-232.7 0c0 81.2-45.6 121.6-116.7 121.6h-68.8V518.5H281c73.7 0 119.4 38.2 119.4 119.7z m418.1 226.5c0 26-21.1 47-47.2 47H252.6c-26 0-47.2-21.1-47.2-47v-47h613.1v47z m7.9-104.9h-146V518.5h48.2v200.8h97.8v40.5z"
    fill="#1296db" p-id="5166"></path>
  <path d="M495.9 557v164h15c45 0 73-24.1 73-82.8 0-59-28-81.2-73-81.2h-15z" fill="#1296db" p-id="5167"></path>
</svg>