<svg t="1741597758453" class="icon" viewBox="0 0 1024 1024" version="1.1" xmlns="http://www.w3.org/2000/svg" p-id="4344"
  width="200" height="200">
  <path
    d="M298.667 117.333A181.333 181.333 0 0 1 480 298.667V480H298.667a181.333 181.333 0 1 1 0-362.667z m0 426.667H480v181.333A181.333 181.333 0 1 1 298.667 544z m426.666-426.667a181.333 181.333 0 1 1 0 362.667H544V298.667a181.333 181.333 0 0 1 181.333-181.334zM544 544h181.333A181.333 181.333 0 1 1 544 725.333V544z"
    fill="" p-id="4345"></path>
</svg>
