<svg t="1728732634247" class="icon" viewBox="0 0 1024 1024" version="1.1" xmlns="http://www.w3.org/2000/svg" p-id="7124"
  width="200" height="200">
  <path
    d="M473.15128 640.302372v-93.856185h111.756591c1.451384 1.693282 1.209487-2.418974 1.451384 3.386564 0 13.304356 1.693282 84.180289-0.967589 90.469621-0.483795 0-0.483795 0.725692-2.902769 0.967589l-109.337617-0.967589z m-103.532079-235.849948c3.144666-24.189738 14.997638-48.621374 27.334404-65.554191a125.786639 125.786639 0 0 1 54.910706-42.090145c49.347066-19.109893 125.302844-17.900406 167.634886 7.015025a110.063309 110.063309 0 0 1 47.411887 48.621373c10.885382 21.770764 12.094869 52.491732 2.418974 75.713881-14.75574 35.07512-43.541529 46.444297-74.988189 68.940754-12.336767 8.950203-15.239535 8.708306-20.077483 27.334404h-97.00085c-5.56364-76.197676 55.636398-75.713881 72.569215-116.110743 11.611074-27.818199-2.660871-56.845885-37.0103-52.249835-34.833223 4.59605-33.623736 40.154966-36.284607 58.781064l-106.918643-10.643485zM215.288671 418.482472c0 64.102806 22.738354 110.789001 47.653784 166.183502 7.256921 15.965227 27.092507 51.76604 36.526505 68.456959l105.467258 159.89417c26.608712 38.219786 53.943116 70.634036 80.793726 106.434848 4.837948 6.047435 32.898044 41.60635 37.0103 44.025324 3.144666-2.177076 9.433998-10.643485 12.336766-14.271946 32.172352-38.703581 62.893319-81.277521 92.646698-120.948691 41.122555-55.152603 104.741567-152.153454 135.462534-210.450723 52.733629-99.661722 96.033261-195.453085 41.122555-306.000189a268.506095 268.506095 0 0 0-70.150241-87.80875L723.273174 215.772465l-20.803175-14.513843A334.785978 334.785978 0 0 0 532.174242 149.976377c-83.454597 0-137.881508 17.416612-198.355854 56.845885l-10.643485 7.982614c-37.252197 27.576302-60.474346 56.603988-80.793726 94.823774a236.333743 236.333743 0 0 0-26.608712 108.853822z"
    fill="" p-id="7125"></path>
  <path
    d="M473.15128 640.302372l109.579515 0.967589c2.177076-0.241897 2.418974-0.725692 2.902768-0.967589 2.418974-6.289332 0.725692-77.165265 0.725692-90.469621 0-5.56364 0-1.693282-1.451384-3.386564l0.483795 93.856185h-112.240386z"
    fill="" p-id="7126"></path>
</svg>