<svg t="1729072857018" class="icon" viewBox="0 0 1024 1024" version="1.1" xmlns="http://www.w3.org/2000/svg"
  p-id="15130" width="200" height="200">
  <path d="M832 544V704h-64V576H320v128H256V544l32-32H512V384h64v128h224z" p-id="15131" fill=""></path>
  <path d="M160 736h256v192h-256z m768 0v192h-256v-192z m-256-576v192h-256v-192z" p-id="15132" fill=""></path>
  <path
    d="M416 704h-256l-32 32v192l32 32h256l32-32v-192zM384 896H192v-128h192z m544-192h-256l-32 32v192l32 32h256l32-32v-192z m-32 192h-192v-128h192zM672 128h-256l-32 32v192l32 32h256l32-32v-192zM640 320H448V192h192z"
    p-id="15133" fill=""></path>
</svg>