<svg t="1699500417337" class="icon" viewBox="0 0 1024 1024" version="1.1" xmlns="http://www.w3.org/2000/svg"
  p-id="13177" width="16" height="16">
  <path
    d="M183.296 552.277333c22.186667-1.024 40.96-9.557333 56.32-25.6 15.36-16.042667 23.210667-35.157333 23.210667-57.344 0 22.186667 7.509333 41.301333 22.869333 57.344 15.36 16.042667 34.133333 24.576 56.32 25.6-22.186667 1.024-40.96 9.557333-56.32 25.6a79.872 79.872 0 0 0-22.869333 57.344c0-22.186667-7.509333-41.301333-23.210667-57.344-15.36-16.042667-34.133333-24.576-56.32-25.6z m79.530667-245.76c43.008-2.048 79.530667-18.773333 109.568-50.176 30.037333-31.402667 45.056-68.608 45.056-111.957333 0 43.349333 15.018667 80.554667 45.056 111.957333s66.56 47.786667 109.909333 50.176c-28.330667 1.365333-54.272 9.216-78.165333 24.234667-23.552 14.677333-42.325333 34.474667-56.32 59.050667-13.653333 24.576-20.48 50.858667-20.48 79.530666 0-43.349333-15.018667-80.896-45.056-112.298666-30.037333-31.744-66.56-48.469333-109.568-50.517334z m113.322666 367.616c32.426667-1.365333 60.074667-13.994667 82.602667-37.546666 22.528-23.552 33.792-51.541333 33.792-84.309334 0 32.768 11.264 60.757333 33.792 84.309334 22.528 23.552 49.834667 36.181333 82.261333 37.546666-32.426667 1.365333-59.733333 13.994667-82.261333 37.546667-22.528 23.552-33.792 51.541333-33.792 84.309333 0-32.768-11.264-60.757333-33.792-84.309333a119.569067 119.569067 0 0 0-82.602667-37.546667z m232.448-161.792c32.426667-1.365333 59.733333-13.994667 82.261334-37.546666 22.528-23.552 33.450667-51.541333 33.450666-84.650667 0 32.768 11.264 60.757333 33.792 84.309333s50.176 36.181333 82.602667 37.546667c-32.426667 1.365333-60.074667 13.994667-82.602667 37.546667-22.528 23.552-33.792 51.541333-33.792 84.309333 0-32.768-11.264-60.757333-33.450666-84.309333-22.528-23.210667-49.834667-35.84-82.261334-37.205334z"
    p-id="13178"></path>
</svg>