<svg t="1728988901365" class="icon" viewBox="0 0 1024 1024" version="1.1" xmlns="http://www.w3.org/2000/svg" p-id="4264"
  width="256" height="256">
  <path
    d="M1007.28192 766.122667l-401.706667-669.44C585.308587 62.805333 550.32192 42.666667 512.04992 42.666667c-38.272 0-73.258667 20.181333-93.525333 53.973333L16.81792 766.122667a119.04 119.04 0 0 0-2.944 116.650666c19.370667 36.522667 56.405333 59.178667 96.426667 59.178667h803.456c40.106667 0 77.098667-22.656 96.426666-59.178667a119.04 119.04 0 0 0-2.901333-116.650666z"
    fill="#FF8800" p-id="4265"></path>
  <path
    d="M512.04992 608.981333c26.496 0 48-22.4 48-50.005333V369.706667c0-27.605333-21.504-50.048-48-50.048s-48 22.442667-48 50.048V558.933333c0 27.605333 21.504 50.005333 48 50.005334z m-64 116.736c0 36.821333 28.629333 66.645333 64 66.645334s64-29.866667 64-66.645334c0-36.821333-28.629333-66.688-64-66.688s-64 29.866667-64 66.688z"
    fill="#FFFFFF" p-id="4266"></path>
</svg>